# xmcd
#
# Track frame offsets:
#	150
#	22015
#	35216
#	48355
#	71027
#	92100
#	113996
#	128530
#	141618
#	154925
#
# Disc length: 2192 seconds
#
# Revision: 1
# Processed by: cddbd v1.5.2PL0 Copyright (c) Steve Scherf et al.
# Submitted via: audiograbber 1.83.01
#
DISCID=94088e0a
DTITLE=R&B Greats - Disc 1
DYEAR=2007
DGENRE=R&B
TTITLE0=Marvin Gaye - Sexual Healing (live)
TTITLE1=Sam and Dave - Soul Man
TTITLE2=Kool and The Gang - Celebration (live)
TTITLE3=Ben E. King - Stand By Me
TTITLE4=Barry White - Out of the Shadows of Love
TTITLE5=Percy Sledge - When A Man Loves A Woman
TTITLE6=Ray Charles - What'd I say (live)
TTITLE7=Dionne Warwick - That's What Friends Are For (live)
TTITLE8=Etta James - At Last
TTITLE9=Sly and The Family Stone - Every Dog Has His Day
EXTD=
EXTT0=
EXTT1=
EXTT2=
EXTT3=
EXTT4=
EXTT5=
EXTT6=
EXTT7=
EXTT8=
EXTT9=
PLAYORDER=
